<svg xmlns="http://www.w3.org/2000/svg" width="20" height="20" fill="none" viewBox="0 0 20 20">
  <path fill="inherit" fill-rule="evenodd" d="m11.357 17.06-.451.763c-.403.68-1.409.68-1.812 0l-.452-.763c-.35-.592-.525-.888-.806-1.052-.282-.164-.636-.17-1.344-.182-1.047-.018-1.703-.082-2.253-.31a4.167 4.167 0 0 1-2.255-2.255c-.317-.765-.317-1.736-.317-3.678V8.75c0-2.728 0-4.092.614-5.093A4.167 4.167 0 0 1 3.656 2.28c1.002-.614 2.367-.614 5.094-.614h2.5c2.727 0 4.092 0 5.094.614.56.343 1.032.814 1.375 1.375.614 1.002.614 2.367.614 5.094v.833c0 1.942 0 2.913-.316 3.678a4.166 4.166 0 0 1-2.256 2.255c-.55.228-1.206.291-2.253.31-.708.012-1.062.018-1.344.182-.281.164-.457.46-.806 1.052Zm-4.69-7.268a.625.625 0 0 0 0 1.25h4.583a.625.625 0 0 0 0-1.25H6.667ZM6.042 7.5a.625.625 0 0 1 .625-.625h6.666a.625.625 0 1 1 0 1.25H6.667a.625.625 0 0 1-.625-.625Z" clip-rule="evenodd"/>
</svg>
