<svg xmlns="http://www.w3.org/2000/svg" width="20" height="20" fill="none" viewBox="0 0 20 20">
  <path fill="#7E8AAD" d="M10 1.667a8.333 8.333 0 1 1 0 16.666 8.333 8.333 0 1 1 0-16.666Zm0 1.666a6.667 6.667 0 1 0 0 13.334 6.667 6.667 0 0 0 0-13.334Zm2.333 8.214a.835.835 0 0 1 1.366.279.832.832 0 0 1-.199.912 4.984 4.984 0 0 1-3.5 1.429 4.983 4.983 0 0 1-3.5-1.43.833.833 0 0 1 1.167-1.19c.622.613 1.46.955 2.333.953.908 0 1.73-.363 2.333-.953Zm-5.25-4.88a1.25 1.25 0 1 1 0 2.5 1.25 1.25 0 0 1 0-2.5Zm5.834 0a1.25 1.25 0 1 1 0 2.5 1.25 1.25 0 0 1 0-2.5Z"/>
</svg>
