<svg xmlns="http://www.w3.org/2000/svg" width="16" height="16" fill="none" viewBox="0 0 16 16">
  <path fill="inherit" d="m10.237 9.404-.303.302s-.722.717-2.692-1.241c-1.97-1.959-1.248-2.676-1.248-2.676l.19-.191c.472-.468.517-1.22.105-1.77l-.84-1.121c-.509-.68-1.492-.77-2.076-.19l-1.046 1.04c-.289.288-.482.66-.459 1.073.06 1.058.539 3.333 3.208 5.988 2.831 2.815 5.488 2.927 6.574 2.825.344-.032.643-.206.883-.446l.947-.942c.64-.635.46-1.725-.359-2.17l-1.273-.692a1.36 1.36 0 0 0-1.61.211Z"/>
</svg>
