<svg xmlns="http://www.w3.org/2000/svg" width="24" height="25" fill="none" viewBox="0 0 24 25">
  <path  fill="inherit" d="M16.191 2.5H7.81C4.77 2.5 3 4.28 3 7.33v10.33c0 3.1 1.77 4.84 4.81 4.84h8.381C19.28 22.5 21 20.76 21 17.66V7.33c0-3.05-1.72-4.83-4.809-4.83Z" opacity=".4"/>
  <path  fill="inherit" d="M8.08 16.24h7.84c.399.04.7.38.7.79 0 .399-.301.74-.7.78H8.08c-.3.04-.59-.11-.75-.36a.795.795 0 0 1 .75-1.21Zm7.84-4.561a.781.781 0 0 1 0 1.561H8.08a.78.78 0 0 1 0-1.561h7.84ZM11.069 7.15c.431 0 .781.35.781.779 0 .441-.35.791-.781.791H8.08a.78.78 0 0 1 0-1.56v-.01h2.989Z"/>
</svg>
