<svg xmlns="http://www.w3.org/2000/svg" width="24" height="25" fill="none" viewBox="0 0 24 25">
  <path  fill="inherit" d="M16.34 2.5H7.67C4.28 2.5 2 4.88 2 8.42v8.17c0 3.53 2.28 5.91 5.67 5.91h8.67c3.39 0 5.66-2.38 5.66-5.91V8.42c0-3.54-2.27-5.92-5.66-5.92Z" opacity=".4"/>
  <path  fill="inherit" d="M11.995 10.987c.482 0 .875.393.875.875v4.42a.877.877 0 0 1-.875.875.877.877 0 0 1-.875-.875v-4.42c0-.482.393-.875.875-.875Zm.01-3.173c.483 0 .875.393.875.875a.878.878 0 0 1-1.755 0c0-.482.395-.875.88-.875Z"/>
</svg>
